<svg xmlns="http://www.w3.org/2000/svg" viewBox="0 0 320 360">
<defs>
  <linearGradient id="bg" x1="0" y1="0" x2="1" y2="1"><stop stop-color="#1b1209"/><stop offset=".55" stop-color="#0b0805"/><stop offset="1" stop-color="#030303"/></linearGradient>
  <linearGradient id="gold" x1="0" x2="1"><stop stop-color="#8e5315"/><stop offset=".45" stop-color="#ffd978"/><stop offset=".72" stop-color="#b8721f"/><stop offset="1" stop-color="#fff0ae"/></linearGradient>
  <linearGradient id="screen" x1="0" y1="0" x2="0" y2="1"><stop stop-color="#4b2a0d"/><stop offset=".5" stop-color="#1a0f07"/><stop offset="1" stop-color="#070504"/></linearGradient>
  <filter id="glow"><feGaussianBlur stdDeviation="7" result="b"/><feMerge><feMergeNode in="b"/><feMergeNode in="SourceGraphic"/></feMerge></filter>
  <filter id="shadow"><feDropShadow dx="0" dy="12" stdDeviation="11" flood-color="#000" flood-opacity=".75"/></filter>
</defs>
<rect width="320" height="360" fill="url(#bg)"/>
<circle cx="235" cy="72" r="88" fill="#d99725" opacity=".14"/>
<g filter="url(#shadow)" transform="translate(66 20) rotate(-5 95 155)">
  <rect x="20" y="5" width="190" height="314" rx="30" fill="#050403" stroke="#e6aa3a" stroke-width="3"/>
  <rect x="29" y="18" width="172" height="288" rx="22" fill="url(#screen)" stroke="#4e3519"/>
  <rect x="87" y="11" width="58" height="5" rx="3" fill="#6a481f"/>
  <rect x="42" y="45" width="146" height="114" rx="13" fill="#211309"/>
  <rect x="42" y="69" width="146" height="31" fill="url(#gold)"/>
  <path d="M42 69h146" stroke="#fff3bd" stroke-opacity=".45"/>
  <rect x="52" y="100" width="126" height="55" rx="5" fill="#4a2a0c"/>
  <rect x="62" y="107" width="39" height="46" rx="4" fill="#17100a" stroke="#b97420"/>
  <path d="M62 121h39" stroke="#e4a93a" stroke-width="3"/>
  <rect x="111" y="108" width="55" height="17" rx="4" fill="#a76b22"/>
  <rect x="116" y="113" width="45" height="7" rx="3" fill="#f5d18a"/>
  <rect x="111" y="132" width="40" height="7" rx="3" fill="#74501e"/>
  <rect x="111" y="143" width="53" height="5" rx="2.5" fill="#362414"/>
  <g transform="translate(42 172)">
    <rect width="42" height="42" rx="9" fill="#2d1c0d" stroke="#84551f"/>
    <rect x="49" width="42" height="42" rx="9" fill="#4a2b0d" stroke="#a66b22"/>
    <rect x="98" width="42" height="42" rx="9" fill="#25180d" stroke="#73501e"/>
    <circle cx="21" cy="21" r="8" fill="#d39a32"/>
    <path d="M14 29h14M15 15h12" stroke="#ffe29a" stroke-width="2"/>
    <circle cx="70" cy="21" r="12" fill="#1a1108" stroke="#d7a343"/>
    <path d="M59 22c6-8 16-8 22 0" stroke="#f3cb77" stroke-width="2" fill="none"/>
    <path d="M111 31V11h16v20" stroke="#d39a32" stroke-width="2" fill="none"/>
  </g>
  <g transform="translate(43 230)">
    <circle cx="14" cy="14" r="14" fill="#3c2812" stroke="#d59a31"/>
    <path d="M14 8c-4 0-7 3-7 7 0 5 7 13 7 13s7-8 7-13c0-4-3-7-7-7Z" fill="none" stroke="#f1c86d" stroke-width="2"/>
    <rect x="38" y="8" width="91" height="10" rx="5" fill="#3d2a18"/>
    <rect x="38" y="24" width="69" height="7" rx="3.5" fill="#261c12"/>
    <circle cx="14" cy="54" r="14" fill="#3c2812" stroke="#d59a31"/>
    <path d="M14 46v9l6 4" stroke="#f1c86d" stroke-width="2" fill="none" stroke-linecap="round"/>
    <rect x="38" y="48" width="83" height="9" rx="4.5" fill="#3d2a18"/>
    <rect x="38" y="63" width="55" height="7" rx="3.5" fill="#261c12"/>
  </g>
</g>
<path d="M225 55c25 8 46 27 57 50" stroke="#f4bd48" stroke-width="2" opacity=".5" fill="none" filter="url(#glow)"/>
</svg>