<svg xmlns="http://www.w3.org/2000/svg" viewBox="0 0 320 360">
<defs>
  <linearGradient id="bg" x1="0" y1="0" x2="1" y2="1"><stop stop-color="#211409"/><stop offset=".56" stop-color="#0b0704"/><stop offset="1" stop-color="#030303"/></linearGradient>
  <linearGradient id="screen" x1="0" y1="0" x2="0" y2="1"><stop stop-color="#a26626"/><stop offset=".42" stop-color="#4b2c12"/><stop offset="1" stop-color="#090604"/></linearGradient>
  <filter id="glow"><feGaussianBlur stdDeviation="8" result="b"/><feMerge><feMergeNode in="b"/><feMergeNode in="SourceGraphic"/></feMerge></filter>
  <filter id="shadow"><feDropShadow dx="0" dy="12" stdDeviation="12" flood-color="#000" flood-opacity=".78"/></filter>
</defs>
<rect width="320" height="360" fill="url(#bg)"/>
<circle cx="234" cy="87" r="90" fill="#dda234" opacity=".14"/>
<g filter="url(#shadow)" transform="translate(78 12) rotate(8 95 164)">
  <rect x="18" y="5" width="188" height="326" rx="34" fill="#050403" stroke="#efb845" stroke-width="4"/>
  <rect x="28" y="18" width="168" height="301" rx="25" fill="url(#screen)"/>
  <rect x="83" y="11" width="58" height="5" rx="3" fill="#6e481c"/>
  <g transform="translate(39 34)">
    <circle cx="12" cy="12" r="12" fill="#7d4b1b" stroke="#ffdd7e" stroke-width="2"/>
    <circle cx="47" cy="12" r="12" fill="#4b3019" stroke="#e5a83b" stroke-width="2"/>
    <circle cx="82" cy="12" r="12" fill="#2b2117" stroke="#9a6729" stroke-width="2"/>
    <circle cx="117" cy="12" r="12" fill="#352317" stroke="#c1832b" stroke-width="2"/>
  </g>
  <ellipse cx="105" cy="181" rx="58" ry="33" fill="#c57c27" opacity=".35"/>
  <ellipse cx="104" cy="178" rx="46" ry="23" fill="#e9b457"/>
  <ellipse cx="104" cy="175" rx="36" ry="17" fill="#f6db9c"/>
  <path d="M79 176c11-13 39-14 52 0-12 12-41 13-52 0Z" fill="#fff3c0"/>
  <path d="M93 175c6-7 18-7 24 0-7 6-18 6-24 0Z" fill="#a35d1c"/>
  <g fill="none" stroke="#fff8e4" stroke-width="3">
    <path d="M166 127c5-8 17-4 17 5 0 8-17 18-17 18s-17-10-17-18c0-9 12-13 17-5Z"/>
    <path d="M150 166h29v18h-17l-8 7v-7h-4Z"/>
    <path d="m154 218 26 10-26 10 5-10-5-10Z"/>
  </g>
  <text x="164" y="157" font-family="Arial" font-size="10" fill="#fff">1.2K</text>
  <text x="165" y="201" font-family="Arial" font-size="10" fill="#fff">84</text>
  <rect x="44" y="271" width="102" height="8" rx="4" fill="#fff" opacity=".5"/>
  <rect x="44" y="286" width="73" height="6" rx="3" fill="#fff" opacity=".22"/>
  <circle cx="48" cy="307" r="13" fill="#39220e" stroke="#d6982d"/>
</g>
<path d="M213 53c35 11 55 30 68 61" stroke="#ffd26d" stroke-width="2" opacity=".45" fill="none" filter="url(#glow)"/>
</svg>